<svg width="51" height="50" viewBox="0 0 51 50" fill="none" xmlns="http://www.w3.org/2000/svg">
<g id="Success Done Completed">
<path id="Vector" d="M21.9731 36.5L39.7034 18.875L36.1825 15.375L21.9731 29.5001L14.8056 22.3751L11.2847 25.8751L21.9731 36.5ZM25.494 50C22.0151 50 18.7457 49.3437 15.6858 48.0314C12.626 46.7188 9.96437 44.9375 7.70093 42.6876C5.43751 40.4376 3.64562 37.7917 2.32529 34.7501C1.00494 31.7084 0.344788 28.4584 0.344788 25C0.344788 21.5417 1.00494 18.2917 2.32529 15.25C3.64562 12.2084 5.43751 9.56256 7.70093 7.31252C9.96437 5.06261 12.626 3.28128 15.6858 1.96877C18.7457 0.656255 22.0151 0 25.494 0C28.973 0 32.2424 0.656255 35.3022 1.96877C38.3621 3.28128 41.0237 5.06261 43.2871 7.31252C45.5506 9.56256 47.3424 12.2084 48.6628 15.25C49.9831 18.2917 50.6433 21.5417 50.6433 25C50.6433 28.4584 49.9831 31.7084 48.6628 34.7501C47.3424 37.7917 45.5506 40.4376 43.2871 42.6876C41.0237 44.9375 38.3621 46.7188 35.3022 48.0314C32.2424 49.3437 28.973 50 25.494 50Z" fill="#2268FD"/>
</g>
</svg>
